{"title":"BAIL ENFORCERS 2011 XviD - DIDyourMUM","uid":6758996,"size":764365492,"categoryP":"video","categoryS":"movies","magnet":"?xt=urn:btih:64f2b90e87e66188a2ebf4e95c20f1bb8fdb6db9&amp;dn=BAIL+ENFORCERS+2011+XviD+-+DIDyourMUM&amp;tr=udp%3A%2F%2Ftracker.openbittorrent.com%3A80&amp;tr=udp%3A%2F%2Fopen.demonii.com%3A1337&amp;tr=udp%3A%2F%2Ftracker.coppersurfer.tk%3A6969&amp;tr=udp%3A%2F%2Fexodus.desync.com%3A6969","seeders":0,"leechers":0,"uploader":"sceneline","files":54,"time":1319139025,"description":"- &lt;a href=&quot;\nhttp://www.Speed.Cd&quot; rel=&quot;nofollow&quot; target=&quot;_NEW&quot;&gt;\nhttp://www.Speed.Cd&lt;/a&gt;      fast  and The Hottest Private Tracker on the net\n\nPlease Seed back to make the speed Faster!!!\n\n------------------nfo--------------------------\n-BAIL ENFORCERS 2011 XviD - DIDyourMUM\n\nFormat                           : AVI\nFormat/Info                      : Audio Video Interleave\nFile size                        : 739 MiB\nDuration                         : 1h 21mn\nOverall bit rate                 : 1 276 Kbps\n\n\nVideo\nID                               : 0\nFormat                           : MPEG-4 Visual\nFormat profile                   : Advanced Simple@L5\nFormat settings, BVOP            : 2\nFormat settings, QPel            : No\nFormat settings, GMC             : No warppoints\nFormat settings, Matrix          : Default (H.263)\nMuxing mode                      : Packed bitstream\nCodec ID                         : XVID\nCodec ID/Hint                    : XviD\nDuration                         : 1h 21mn\nBit rate                         : 1 075 Kbps\nWidth                            : 720 pixels\nHeight                           : 400 pixels\nDisplay aspect ratio             : 16:9\nFrame rate                       : 23.976 fps\nColor space                      : YUV\nChroma subsampling               : 4:2:0\nBit depth                        : 8 bits\nScan type                        : Progressive\nCompression mode                 : Lossy\nBits/(Pixel*Frame)               : 0.156\nStream size                      : 623 MiB (84%)\nWriting library                  : XviD 64\n\nAudio\nID                               : 1\nFormat                           : AC-3\nFormat/Info                      : Audio Coding 3\nMode extension                   : CM (complete main)\nCodec ID                         : 2000\nDuration                         : 1h 21mn\nBit rate mode                    : Constant\nBit rate                         : 192 Kbps\nChannel(s)                       : 2 channels\nChannel positions                : Front: L R\nSampling rate                    : 48.0 KHz\nBit depth                        : 16 bits\nCompression mode                 : Lossy\nStream size                      : 111 MiB (15%)\nAlignment                        : Aligned on interleaves\nInterleave, duration             : 42 ms (1.00 video frame)\nInterleave, preload duration     : 512 ms\n\n\n\n\n\nSOURCES THANKED:\nAUDIO: BAIL ENFORCERS 2011 DVDR DIDyourGRAN thanks\nVIDEO: BAIL ENFORCERS 2011 DVDR DIDyourGRAN thanks\n &lt;a href=&quot;\nhttp://www.imdb.com/title/tt1596565/&quot; rel=&quot;nofollow&quot; target=&quot;_NEW&quot;&gt;\nhttp://www.imdb.com/title/tt1596565/&lt;/a&gt;\n[IMG]http://i.imgur.com/zpfej.png[/IMG] :lol:\n\nWORKDONE:\n\nDIDyourMUM enjoy i did.... later all.... time for 2nds :lol:\n\npics stuff that theres sample thats what it there for no photo shop pics here","torrent":{"xt":"urn:btih:64f2b90e87e66188a2ebf4e95c20f1bb8fdb6db9","amp;dn":"BAIL+ENFORCERS+2011+XviD+-+DIDyourMUM","amp;tr":["udp%3A%2F%2Ftracker.openbittorrent.com%3A80","udp%3A%2F%2Fopen.demonii.com%3A1337","udp%3A%2F%2Ftracker.coppersurfer.tk%3A6969","udp%3A%2F%2Fexodus.desync.com%3A6969"],"infoHash":"64f2b90e87e66188a2ebf4e95c20f1bb8fdb6db9","infoHashBuffer":{"type":"Buffer","data":[100,242,185,14,135,230,97,136,162,235,244,233,92,32,241,187,143,219,109,185]},"announce":[],"urlList":[]}}